<svg width="220" height="220" viewBox="0 0 220 220" fill="none" xmlns="http://www.w3.org/2000/svg">
  <defs>
    <radialGradient id="glow" cx="0" cy="0" r="1" gradientUnits="userSpaceOnUse" gradientTransform="translate(110 110) rotate(90) scale(110)">
      <stop stop-color="#FFF6D4" stop-opacity="0.7" />
      <stop offset="1" stop-color="#FFF6D4" stop-opacity="0" />
    </radialGradient>
    <linearGradient id="gold" x1="110" y1="10" x2="110" y2="210" gradientUnits="userSpaceOnUse">
      <stop stop-color="#FFE47E" />
      <stop offset="0.5" stop-color="#FDBA29" />
      <stop offset="1" stop-color="#C7720A" />
    </linearGradient>
    <linearGradient id="goldSide" x1="20" y1="110" x2="200" y2="110" gradientUnits="userSpaceOnUse">
      <stop stop-color="#FFD45A" />
      <stop offset="0.5" stop-color="#FDB126" />
      <stop offset="1" stop-color="#CD790D" />
    </linearGradient>
    <linearGradient id="blue" x1="62" y1="62" x2="158" y2="158" gradientUnits="userSpaceOnUse">
      <stop stop-color="#9ED7FF" />
      <stop offset="0.55" stop-color="#2A8AFF" />
      <stop offset="1" stop-color="#114DAF" />
    </linearGradient>
    <filter id="shadow" x="0" y="0" width="220" height="220" filterUnits="userSpaceOnUse" color-interpolation-filters="sRGB">
      <feDropShadow dx="0" dy="0" stdDeviation="4" flood-color="#000000" flood-opacity="0.45" />
    </filter>
  </defs>

  <circle cx="110" cy="110" r="110" fill="url(#glow)" />

  <g filter="url(#shadow)">
    <circle cx="110" cy="110" r="98" stroke="#F4E4C2" stroke-width="3.2" />
    <circle cx="110" cy="110" r="90" stroke="#2A1F0F" stroke-opacity="0.7" stroke-width="2" />

    <polygon points="110,8 131,96 110,110 89,96" fill="url(#gold)" />
    <polygon points="212,110 124,131 110,110 124,89" fill="url(#goldSide)" />
    <polygon points="110,212 89,124 110,110 131,124" fill="url(#gold)" />
    <polygon points="8,110 96,89 110,110 96,131" fill="url(#goldSide)" />

    <polygon points="165,38 127,96 110,110 124,87" fill="url(#blue)" />
    <polygon points="182,165 124,127 110,110 133,124" fill="url(#blue)" />
    <polygon points="55,182 93,124 110,110 86,133" fill="url(#blue)" />
    <polygon points="38,55 96,93 110,110 87,96" fill="url(#blue)" />

    <circle cx="110" cy="110" r="10" fill="#FFFBE8" />
    <circle cx="110" cy="110" r="17" stroke="#FFCD66" stroke-opacity="0.7" />
  </g>
</svg>
