<svg width="1024" height="1024" viewBox="0 0 1024 1024" fill="none" xmlns="http://www.w3.org/2000/svg">
  <defs>
    <radialGradient id="bgGlow" cx="0" cy="0" r="1" gradientUnits="userSpaceOnUse" gradientTransform="translate(512 512) rotate(90) scale(380)">
      <stop offset="0" stop-color="#FFF6CA" stop-opacity="0.85"/>
      <stop offset="0.6" stop-color="#F8C34B" stop-opacity="0.25"/>
      <stop offset="1" stop-color="#F8C34B" stop-opacity="0"/>
    </radialGradient>
    <linearGradient id="gold" x1="512" y1="132" x2="512" y2="892" gradientUnits="userSpaceOnUse">
      <stop offset="0" stop-color="#FFE791"/>
      <stop offset="0.5" stop-color="#FBC238"/>
      <stop offset="1" stop-color="#B56A00"/>
    </linearGradient>
    <linearGradient id="goldSoft" x1="132" y1="512" x2="892" y2="512" gradientUnits="userSpaceOnUse">
      <stop offset="0" stop-color="#FFEC9F"/>
      <stop offset="0.52" stop-color="#F8BE34"/>
      <stop offset="1" stop-color="#C97B05"/>
    </linearGradient>
    <linearGradient id="blue" x1="282" y1="282" x2="742" y2="742" gradientUnits="userSpaceOnUse">
      <stop offset="0" stop-color="#C8EAFF"/>
      <stop offset="0.5" stop-color="#4AA3FF"/>
      <stop offset="1" stop-color="#1451B0"/>
    </linearGradient>
    <filter id="starGlow" x="0" y="0" width="1024" height="1024" filterUnits="userSpaceOnUse" color-interpolation-filters="sRGB">
      <feGaussianBlur stdDeviation="20" result="blur"/>
      <feColorMatrix in="blur" type="matrix" values="1 0 0 0 0  0 0.86 0 0 0  0 0.55 0 0 0  0 0 0 0.42 0"/>
      <feBlend in="SourceGraphic" mode="screen"/>
    </filter>
  </defs>

  <rect width="1024" height="1024" fill="url(#bgGlow)" opacity="0.35"/>

  <g filter="url(#starGlow)">
    <polygon points="512,132 582,430 512,544 442,430" fill="url(#gold)"/>
    <polygon points="512,892 582,594 512,480 442,594" fill="url(#gold)"/>
    <polygon points="132,512 430,442 544,512 430,582" fill="url(#goldSoft)"/>
    <polygon points="892,512 594,442 480,512 594,582" fill="url(#goldSoft)"/>

    <polygon points="232,282 430,430 512,512 386,468" fill="url(#blue)"/>
    <polygon points="792,282 594,430 512,512 638,468" fill="url(#blue)"/>
    <polygon points="232,742 430,594 512,512 386,556" fill="url(#blue)"/>
    <polygon points="792,742 594,594 512,512 638,556" fill="url(#blue)"/>

    <circle cx="512" cy="512" r="68" fill="none" stroke="#FFD978" stroke-width="8" opacity="0.9"/>
    <circle cx="512" cy="512" r="34" fill="#FFF9DF" stroke="#F1C468" stroke-width="5"/>
  </g>
</svg>
