<svg width="1280" height="800" viewBox="0 0 1280 800" fill="none" xmlns="http://www.w3.org/2000/svg">
  <defs>
    <linearGradient id="sessionBg" x1="640" y1="0" x2="640" y2="800" gradientUnits="userSpaceOnUse">
      <stop offset="0" stop-color="#0A1020"/>
      <stop offset="0.5" stop-color="#090F1B"/>
      <stop offset="1" stop-color="#070B14"/>
    </linearGradient>
    <radialGradient id="streamGlowA" cx="0" cy="0" r="1" gradientUnits="userSpaceOnUse" gradientTransform="translate(320 210) rotate(31) scale(520 300)">
      <stop stop-color="#214885" stop-opacity="0.34"/>
      <stop offset="1" stop-color="#214885" stop-opacity="0"/>
    </radialGradient>
    <radialGradient id="streamGlowB" cx="0" cy="0" r="1" gradientUnits="userSpaceOnUse" gradientTransform="translate(1000 560) rotate(22) scale(550 340)">
      <stop stop-color="#1C3B71" stop-opacity="0.3"/>
      <stop offset="1" stop-color="#1C3B71" stop-opacity="0"/>
    </radialGradient>
    <linearGradient id="dangerButton" x1="1146" y1="12" x2="1146" y2="36" gradientUnits="userSpaceOnUse">
      <stop stop-color="#FF7A7B"/>
      <stop offset="1" stop-color="#FF4D4F"/>
    </linearGradient>
    <linearGradient id="qualityChip" x1="750" y1="762" x2="750" y2="786" gradientUnits="userSpaceOnUse">
      <stop stop-color="#17253A"/>
      <stop offset="1" stop-color="#101A2A"/>
    </linearGradient></defs>

  <rect width="1280" height="800" fill="#0B0F17"/>
  <rect width="1280" height="800" fill="url(#sessionBg)"/>

  <rect x="0" y="0" width="1280" height="48" fill="#0F1623" fill-opacity="0.95"/>
  <rect x="0" y="47" width="1280" height="1" fill="#2B4263"/>

  <g transform="translate(20 15)">
    <text x="0" y="12" fill="#EAEFF5" font-family="Inter, Manrope, sans-serif" font-size="14" font-weight="400">Подключено к: <tspan fill="#EAEFF5" font-family="Inter, Manrope, sans-serif" font-size="14" font-weight="600">DESKTOP-VALDEN</tspan></text>
    <circle cx="218" cy="8" r="4" fill="#3BE374"/>
  </g>

  <g transform="translate(608 15)">
    <text x="0" y="12" fill="#9CA3AF" font-family="Inter, Manrope, sans-serif" font-size="12" font-weight="400">Сессия</text>
    <text x="52" y="12" fill="#EAEFF5" font-family="Inter, Manrope, sans-serif" font-size="14" font-weight="600">00:12:34</text>
  </g>

  <g transform="translate(976 12)">
    <rect x="0" y="0" width="34" height="24" rx="8" fill="#111827"/>
    <rect x="0.5" y="0.5" width="33" height="23" rx="7.5" stroke="#334A6C"/>
    <path d="M10 8H24V16H10V8ZM12 10V14H22V10H12Z" fill="#D6E3F7"/>

    <rect x="46" y="0" width="34" height="24" rx="8" fill="#111827"/>
    <rect x="46.5" y="0.5" width="33" height="23" rx="7.5" stroke="#334A6C"/>
    <path d="M58 8H68V10H58V8ZM58 12H68V14H58V12ZM58 16H68V18H58V16Z" fill="#D6E3F7"/>

    <rect x="92" y="0" width="98" height="24" rx="10" fill="url(#dangerButton)"/>
    <text x="141" y="15" text-anchor="middle" fill="#1A0F11" font-family="Inter, Manrope, sans-serif" font-size="12" font-weight="600">Завершить</text>
  </g>

  <g>
    <rect x="16" y="64" width="1248" height="676" rx="16" fill="#0A1423"/>
    <rect x="16.5" y="64.5" width="1247" height="675" rx="15.5" stroke="#26405F"/>

    <rect x="16" y="64" width="1248" height="676" rx="16" fill="url(#streamGlowA)"/>
    <rect x="16" y="64" width="1248" height="676" rx="16" fill="url(#streamGlowB)"/>

    <g opacity="0.22" stroke="#7CAEE8">
      <path d="M16 204H1264"/>
      <path d="M16 344H1264"/>
      <path d="M16 484H1264"/>
      <path d="M16 624H1264"/>
      <path d="M256 64V740"/>
      <path d="M496 64V740"/>
      <path d="M736 64V740"/>
      <path d="M976 64V740"/>
    </g>

    <g opacity="0.76" fill="#D7E8FF">
      <circle cx="108" cy="118" r="1.1"/><circle cx="196" cy="152" r="1"/><circle cx="286" cy="126" r="1.3"/><circle cx="374" cy="164" r="0.9"/>
      <circle cx="462" cy="134" r="1.1"/><circle cx="558" cy="158" r="1"/><circle cx="654" cy="122" r="1.2"/><circle cx="752" cy="166" r="1"/>
      <circle cx="846" cy="130" r="1.2"/><circle cx="944" cy="162" r="0.9"/><circle cx="1038" cy="128" r="1.1"/><circle cx="1138" cy="160" r="1"/>
      <circle cx="1206" cy="132" r="1.1"/><circle cx="154" cy="304" r="1"/><circle cx="248" cy="336" r="1.2"/><circle cx="332" cy="308" r="1"/>
      <circle cx="426" cy="340" r="1.1"/><circle cx="518" cy="308" r="1"/><circle cx="612" cy="334" r="1.2"/><circle cx="704" cy="304" r="0.9"/>
      <circle cx="798" cy="338" r="1.1"/><circle cx="892" cy="306" r="1"/><circle cx="986" cy="336" r="1.2"/><circle cx="1080" cy="304" r="1"/>
      <circle cx="1168" cy="334" r="1.1"/><circle cx="96" cy="514" r="1.2"/><circle cx="188" cy="548" r="1"/><circle cx="282" cy="516" r="1.2"/>
      <circle cx="376" cy="550" r="0.9"/><circle cx="468" cy="518" r="1.1"/><circle cx="562" cy="552" r="1"/><circle cx="654" cy="516" r="1.3"/>
      <circle cx="748" cy="548" r="1"/><circle cx="842" cy="514" r="1.2"/><circle cx="936" cy="550" r="1"/><circle cx="1032" cy="518" r="1.1"/>
      <circle cx="1126" cy="546" r="0.9"/><circle cx="1214" cy="512" r="1.1"/>
    </g>

    <g opacity="0.42" fill="#0F1623" stroke="#34567E">
      <rect x="76" y="118" width="320" height="204" rx="12"/>
      <rect x="460" y="152" width="408" height="264" rx="12"/>
      <rect x="914" y="122" width="286" height="178" rx="12"/>
      <rect x="140" y="372" width="372" height="228" rx="12"/>
      <rect x="558" y="442" width="512" height="212" rx="12"/>
    </g>
  </g>

  <g>
    <rect x="0" y="748" width="1280" height="52" fill="#0F1623" fill-opacity="0.96"/>
    <rect x="0" y="748" width="1280" height="1" fill="#2B4263"/>

    <g transform="translate(20 767)">
      <text x="0" y="0" fill="#C9D8ED" font-family="Inter, Manrope, sans-serif" font-size="12" font-weight="400">Ping</text>
      <text x="32" y="0" fill="#EAEFF5" font-family="Inter, Manrope, sans-serif" font-size="12" font-weight="600">33ms</text>

      <text x="94" y="0" fill="#C9D8ED" font-family="Inter, Manrope, sans-serif" font-size="12" font-weight="400">FPS</text>
      <text x="122" y="0" fill="#EAEFF5" font-family="Inter, Manrope, sans-serif" font-size="12" font-weight="600">60</text>

      <text x="170" y="0" fill="#C9D8ED" font-family="Inter, Manrope, sans-serif" font-size="12" font-weight="400">Quality</text>
      <rect x="222" y="-16" width="170" height="24" rx="10" fill="url(#qualityChip)"/>
      <rect x="222.5" y="-15.5" width="169" height="23" rx="9.5" stroke="#334A6C"/>
      <text x="238" y="0" fill="#D4E2F8" font-family="Inter, Manrope, sans-serif" font-size="12" font-weight="400">Auto</text>
      <text x="276" y="0" fill="#3BE374" font-family="Inter, Manrope, sans-serif" font-size="12" font-weight="600">/ 720p / 1080p</text>
    </g>

    <g transform="translate(912 760)">
      <rect x="0" y="-8" width="122" height="28" rx="10" fill="#111827"/>
      <rect x="0.5" y="-7.5" width="121" height="27" rx="9.5" stroke="#334A6C"/>
      <text x="61" y="9" text-anchor="middle" fill="#D4E2F8" font-family="Inter, Manrope, sans-serif" font-size="12" font-weight="400">Переключить монитор</text>

      <rect x="134" y="-8" width="98" height="28" rx="10" fill="#111827"/>
      <rect x="134.5" y="-7.5" width="97" height="27" rx="9.5" stroke="#334A6C"/>
      <text x="183" y="9" text-anchor="middle" fill="#D4E2F8" font-family="Inter, Manrope, sans-serif" font-size="12" font-weight="400">Ctrl+Alt+Del</text>

      <rect x="244" y="-8" width="112" height="28" rx="10" fill="#111827" fill-opacity="0.5"/>
      <rect x="244.5" y="-7.5" width="111" height="27" rx="9.5" stroke="#334A6C" stroke-opacity="0.6"/>
      <text x="300" y="9" text-anchor="middle" fill="#9CA3AF" font-family="Inter, Manrope, sans-serif" font-size="12" font-weight="400">Передача файлов</text>
    </g>
  </g>
</svg>
